<svg xmlns="http://www.w3.org/2000/svg" xmlns:xlink="http://www.w3.org/1999/xlink" viewBox="0 0 1200 800">
    <!-- Background -->
    <rect width="1200" height="800" fill="#f9fafb" />
    <text x="600" y="40" font-family="Arial" font-size="24" text-anchor="middle" font-weight="bold">Market Romi - Data Flow Diagram</text>
    
    <!-- External Entities -->
    <!-- Customer Entity -->
    <rect x="100" y="150" width="160" height="80" fill="white" stroke="#047857" stroke-width="3" rx="5" ry="5" />
    <text x="180" y="195" font-family="Arial" font-size="16" text-anchor="middle" font-weight="bold">Customer</text>
    
    <!-- Supplier Entity -->
    <rect x="100" y="550" width="160" height="80" fill="white" stroke="#047857" stroke-width="3" rx="5" ry="5" />
    <text x="180" y="595" font-family="Arial" font-size="16" text-anchor="middle" font-weight="bold">Supplier</text>
    
    <!-- Management Entity -->
    <rect x="900" y="150" width="160" height="80" fill="white" stroke="#047857" stroke-width="3" rx="5" ry="5" />
    <text x="980" y="195" font-family="Arial" font-size="16" text-anchor="middle" font-weight="bold">Management</text>
    
    <!-- Staff Entity -->
    <rect x="900" y="550" width="160" height="80" fill="white" stroke="#047857" stroke-width="3" rx="5" ry="5" />
    <text x="980" y="595" font-family="Arial" font-size="16" text-anchor="middle" font-weight="bold">Staff</text>
    
    <!-- Processes (Circles) -->
    <!-- Order Processing -->
    <circle cx="400" cy="190" r="70" fill="white" stroke="#3b82f6" stroke-width="3" />
    <text x="400" y="175" font-family="Arial" font-size="16" text-anchor="middle" font-weight="bold">1.0</text>
    <text x="400" y="200" font-family="Arial" font-size="16" text-anchor="middle" font-weight="bold">Order</text>
    <text x="400" y="220" font-family="Arial" font-size="16" text-anchor="middle" font-weight="bold">Processing</text>
    
    <!-- Inventory Management -->
    <circle cx="400" cy="590" r="70" fill="white" stroke="#3b82f6" stroke-width="3" />
    <text x="400" y="575" font-family="Arial" font-size="16" text-anchor="middle" font-weight="bold">2.0</text>
    <text x="400" y="600" font-family="Arial" font-size="16" text-anchor="middle" font-weight="bold">Inventory</text>
    <text x="400" y="620" font-family="Arial" font-size="16" text-anchor="middle" font-weight="bold">Management</text>
    
    <!-- Reporting -->
    <circle cx="700" cy="190" r="70" fill="white" stroke="#3b82f6" stroke-width="3" />
    <text x="700" y="175" font-family="Arial" font-size="16" text-anchor="middle" font-weight="bold">3.0</text>
    <text x="700" y="200" font-family="Arial" font-size="16" text-anchor="middle" font-weight="bold">Reporting &</text>
    <text x="700" y="220" font-family="Arial" font-size="16" text-anchor="middle" font-weight="bold">Analytics</text>
    
    <!-- Customer Support -->
    <circle cx="700" cy="590" r="70" fill="white" stroke="#3b82f6" stroke-width="3" />
    <text x="700" y="575" font-family="Arial" font-size="16" text-anchor="middle" font-weight="bold">4.0</text>
    <text x="700" y="600" font-family="Arial" font-size="16" text-anchor="middle" font-weight="bold">Customer</text>
    <text x="700" y="620" font-family="Arial" font-size="16" text-anchor="middle" font-weight="bold">Support</text>
    
    <!-- Data Stores (Parallel Lines) -->
    <!-- Product Database -->
    <rect x="300" y="370" width="200" height="60" fill="white" stroke="#9333ea" stroke-width="3" rx="3" ry="3" />
    <line x1="300" y1="430" x2="500" y2="430" stroke="#9333ea" stroke-width="3" />
    <text x="400" y="405" font-family="Arial" font-size="16" text-anchor="middle" font-weight="bold">D1: Product Database</text>
    
    <!-- Order Database -->
    <rect x="550" y="370" width="200" height="60" fill="white" stroke="#9333ea" stroke-width="3" rx="3" ry="3" />
    <line x1="550" y1="430" x2="750" y2="430" stroke="#9333ea" stroke-width="3" />
    <text x="650" y="405" font-family="Arial" font-size="16" text-anchor="middle" font-weight="bold">D2: Order Database</text>
    
    <!-- User Database -->
    <rect x="800" y="370" width="200" height="60" fill="white" stroke="#9333ea" stroke-width="3" rx="3" ry="3" />
    <line x1="800" y1="430" x2="1000" y2="430" stroke="#9333ea" stroke-width="3" />
    <text x="900" y="405" font-family="Arial" font-size="16" text-anchor="middle" font-weight="bold">D3: User Database</text>
    
    <!-- Data Flows with Curved Paths -->
    <!-- Marker Definitions -->
    <defs>
        <marker id="arrowhead" markerWidth="10" markerHeight="7" refX="9" refY="3.5" orient="auto">
            <polygon points="0 0, 10 3.5, 0 7" fill="#374151" />
        </marker>
    </defs>
    
    <!-- Customer to Order Processing -->
    <path d="M260,170 C290,170 300,170 330,170" stroke="#374151" stroke-width="2" fill="none" marker-end="url(#arrowhead)" />
    <text x="295" y="160" font-family="Arial" font-size="12" text-anchor="middle">Place Order</text>
    
    <!-- Order Processing to Customer -->
    <path d="M330,210 C300,210 290,210 260,210" stroke="#374151" stroke-width="2" fill="none" marker-end="url(#arrowhead)" />
    <text x="295" y="230" font-family="Arial" font-size="12" text-anchor="middle">Order Confirmation</text>
    
    <!-- Order Processing to Order Database -->
    <path d="M450,230 C510,280 550,320 610,370" stroke="#374151" stroke-width="2" fill="none" marker-end="url(#arrowhead)" />
    <text x="500" y="300" font-family="Arial" font-size="12" text-anchor="middle">Store Order Data</text>
    
    <!-- Order Processing to Product Database -->
    <path d="M380,260 C380,290 380,320 380,370" stroke="#374151" stroke-width="2" fill="none" marker-end="url(#arrowhead)" />
    <text x="420" y="315" font-family="Arial" font-size="12" text-anchor="middle">Check Product Availability</text>
    
    <!-- Order Database to Reporting -->
    <path d="M670,370 C670,340 670,290 670,260" stroke="#374151" stroke-width="2" fill="none" marker-end="url(#arrowhead)" />
    <text x="700" y="315" font-family="Arial" font-size="12" text-anchor="middle">Order Data</text>
    
    <!-- Product Database to Reporting -->
    <path d="M460,370 C520,330 580,280 650,240" stroke="#374151" stroke-width="2" fill="none" marker-end="url(#arrowhead)" />
    <text x="520" y="290" font-family="Arial" font-size="12" text-anchor="middle">Product Data</text>
    
    <!-- User Database to Reporting -->
    <path d="M840,370 C810,330 780,280 750,240" stroke="#374151" stroke-width="2" fill="none" marker-end="url(#arrowhead)" />
    <text x="810" y="290" font-family="Arial" font-size="12" text-anchor="middle">User Data</text>
    
    <!-- Reporting to Management -->
    <path d="M770,190 C810,190 860,190 900,190" stroke="#374151" stroke-width="2" fill="none" marker-end="url(#arrowhead)" />
    <text x="835" y="175" font-family="Arial" font-size="12" text-anchor="middle">Sales Reports</text>
    
    <!-- Management to Inventory Management -->
    <path d="M900,210 C750,350 600,450 450,530" stroke="#374151" stroke-width="2" fill="none" marker-end="url(#arrowhead)" />
    <text x="650" y="350" font-family="Arial" font-size="12" text-anchor="middle">Inventory Requirements</text>
    
    <!-- Inventory Management to Product Database -->
    <path d="M400,520 C400,490 400,460 400,430" stroke="#374151" stroke-width="2" fill="none" marker-end="url(#arrowhead)" />
    <text x="450" y="480" font-family="Arial" font-size="12" text-anchor="middle">Update Inventory</text>
    
    <!-- Supplier to Inventory Management -->
    <path d="M260,590 C280,590 310,590 330,590" stroke="#374151" stroke-width="2" fill="none" marker-end="url(#arrowhead)" />
    <text x="295" y="575" font-family="Arial" font-size="12" text-anchor="middle">Supply Products</text>
    
    <!-- Inventory Management to Supplier -->
    <path d="M330,610 C300,610 290,610 260,610" stroke="#374151" stroke-width="2" fill="none" marker-end="url(#arrowhead)" />
    <text x="295" y="630" font-family="Arial" font-size="12" text-anchor="middle">Purchase Orders</text>
    
    <!-- Customer to Customer Support -->
    <path d="M180,230 C300,350 500,450 650,535" stroke="#374151" stroke-width="2" fill="none" marker-end="url(#arrowhead)" />
    <text x="350" y="365" font-family="Arial" font-size="12" text-anchor="middle">Inquiries/Issues</text>
    
    <!-- Customer Support to Customer -->
    <path d="M640,545 C500,450 300,350 170,240" stroke="#374151" stroke-width="2" fill="none" marker-end="url(#arrowhead)" />
    <text x="335" y="385" font-family="Arial" font-size="12" text-anchor="middle">Resolutions/Updates</text>
    
    <!-- Staff to Customer Support -->
    <path d="M900,580 C860,580 810,580 770,580" stroke="#374151" stroke-width="2" fill="none" marker-end="url(#arrowhead)" />
    <text x="835" y="565" font-family="Arial" font-size="12" text-anchor="middle">Support Provision</text>
    
    <!-- Customer Support to Order Database -->
    <path d="M670,530 C660,500 655,460 650,430" stroke="#374151" stroke-width="2" fill="none" marker-end="url(#arrowhead)" />
    <text x="660" y="480" font-family="Arial" font-size="12" text-anchor="middle">Update Orders</text>
    
    <!-- Customer Support to User Database -->
    <path d="M760,545 C800,510 840,470 880,430" stroke="#374151" stroke-width="2" fill="none" marker-end="url(#arrowhead)" />
    <text x="850" y="490" font-family="Arial" font-size="12" text-anchor="middle">Update User Info</text>
    
    <!-- Order Processing to Customer Support -->
    <path d="M450,240 C520,350 580,450 650,540" stroke="#374151" stroke-width="2" fill="none" marker-end="url(#arrowhead)" />
    <text x="530" y="400" font-family="Arial" font-size="12" text-anchor="middle">Order Issues</text>
    
    <!-- Staff to Inventory Management -->
    <path d="M900,590 C750,590 600,590 470,590" stroke="#374151" stroke-width="2" fill="none" marker-end="url(#arrowhead)" />
    <text x="685" y="610" font-family="Arial" font-size="12" text-anchor="middle">Stock Management</text>
</svg>
